<svg version="1.1" xmlns="http://www.w3.org/2000/svg" xmlns:xlink="http://www.w3.org/1999/xlink" width="105.41454" height="108.85098" viewBox="0,0,105.41454,108.85098"><g transform="translate(-187.29273,-125.57451)"><g data-paper-data="{&quot;isPaintingLayer&quot;:true}" fill="#00ff00" fill-rule="nonzero" stroke="none" stroke-width="0.5" stroke-linecap="butt" stroke-linejoin="miter" stroke-miterlimit="10" stroke-dasharray="" stroke-dashoffset="0" style="mix-blend-mode: normal"><path d="M212.02506,142.85067c0.02459,0.07965 0.03573,0.12461 0.03573,0.12461c0.35914,1.44872 0.78308,2.8695 1.23618,4.2772c0.09378,-0.09159 0.19178,-0.17927 0.29379,-0.26272l2.28778,-1.95314c0.49221,-0.73965 2.08226,-0.82273 2.04419,-1.71037c-0.13731,-3.20142 -4.19052,-0.89879 -5.76737,-0.50788zM216.85835,158.47985c0.40183,1.62836 1.63135,4.72645 0.93355,6.69314c0.03369,-0.03293 0.06643,-0.05961 0.09724,-0.07778c0.19538,-0.11524 2.12662,-1.32123 2.35656,-1.74805c1.40795,-2.61334 2.19538,-7.26262 -1.54442,-8.17912l-2.51341,-0.19833c-0.11058,-0.00613 -0.22046,-0.01634 -0.32945,-0.03054c0.36484,1.16774 0.70491,2.34515 0.99992,3.54068zM226.8827,144.1743c-0.03188,0.46191 -0.69375,2.33892 -1.64545,4.12481c5.36696,3.97941 6.32879,11.29772 3.9469,17.23492c2.20098,-0.38724 4.38893,-0.65014 6.51946,-0.79503c-3.84782,-7.9138 -4.99962,-20.78961 -5.39002,-22.31319c-0.14584,-0.56916 -1.99515,-5.38044 -2.0011,-5.37916c-0.99349,0.21101 -1.9722,0.42723 -2.93893,0.64903c1.10945,1.80498 1.67963,4.00865 1.50913,6.47862zM253.17619,168.70108c11.77833,8.415 15.73501,30.21258 10.2046,43.29613c-4.24142,10.03415 -14.8194,19.38742 -24.93119,22.11884l-0.68092,0.1688c0,0 -3.25152,0.80606 -5.23386,-1.44123l0.00003,-0.00002c-13.15123,-1.09395 -24.40842,-8.3533 -30.28421,-20.97088c-2.80456,-6.02245 -6.74494,-11.78446 -5.84783,-18.89701c0.35361,-2.80355 1.10857,-5.3754 2.19286,-7.72586c-2.20259,-2.91107 -3.01283,-7.52997 -4.17901,-10.2257c-4.15317,-9.60034 -11.9211,-27.65658 -3.04645,-36.49623c7.7728,-7.74215 30.10335,-11.00764 38.28794,-12.77712c2.5297,-0.54692 3.44898,0.22183 5.32624,1.7095c5.8269,4.61764 8.94805,32.21206 10.46386,31.56548c11.80628,-5.03614 23.83824,-10.07326 35.95507,-14.34943c3.52039,-1.24238 9.55532,-3.81207 11.08467,2.35707c1.38266,5.57746 -4.08884,6.55367 -7.57236,7.69211c-10.74836,3.51262 -21.3302,8.54686 -31.80176,12.76914c-0.33134,0.1336 -0.67993,0.28502 -1.04271,0.44803c0.35351,0.23186 0.72095,0.48396 1.10505,0.75838zM210.8578,172.15447c-0.19145,-0.18114 -0.37794,-0.37424 -0.55901,-0.57971c-1.80261,-2.04554 -1.16249,-5.97117 -1.58207,-8.59717c-0.97363,-6.09359 -3.90366,-11.83503 -5.3915,-17.83674c0,0 -0.13717,-0.55333 -0.11692,-1.31492c-2.7828,0.49574 -5.69378,1.06421 -5.19478,3.1703c2.21956,9.36796 3.15072,20.24654 7.57934,29.01342c1.61416,-1.42826 3.38339,-2.71128 5.26494,-3.85517zM240.67324,222.13199c2.05642,-1.0128 3.88997,-2.34706 5.49412,-3.92038c6.90757,-4.92071 10.47419,-13.72954 8.30973,-22.46068c-0.08812,-0.35545 -0.1847,-0.70657 -0.28945,-1.05321c-0.03032,-0.31378 -0.06576,-0.6261 -0.10636,-0.93679c-1.33598,-10.22264 -4.01584,-17.38687 -15.23651,-18.535c-11.90942,-0.10053 -29.63354,5.13435 -31.89064,19.12169c-0.71198,4.41217 3.35999,9.48283 4.97835,13.11207c4.87724,10.93731 15.88372,16.23982 27.84312,14.68498c0,0 0.35752,-0.04261 0.89764,-0.01267z"/><path d="M216.8633,193.21938c-0.66445,-2.68029 0.96972,-5.39174 3.65001,-6.05619c2.68029,-0.66445 5.39174,0.96972 6.05619,3.65001c0.66445,2.68029 -0.96972,5.39174 -3.65001,6.05619c-2.68029,0.66445 -5.39174,-0.96972 -6.05619,-3.65001z"/><path d="M232.91097,188.74381c-0.66445,-2.68029 0.96972,-5.39174 3.65001,-6.05619c2.68029,-0.66445 5.39174,0.96972 6.05619,3.65001c0.66445,2.68029 -0.96972,5.39174 -3.65001,6.05619c-2.68029,0.66445 -5.39174,-0.96972 -6.05619,-3.65001z"/><path d="M233.99791,207.19385c2.75087,-1.12411 2.91888,-3.80355 6.00712,-4.75378c7.97201,-2.45295 6.27846,8.50681 1.54347,12.04344c-3.99245,2.98203 -10.03873,3.68012 -14.54961,1.49873c-0.40234,-0.19457 -1.29372,-0.69561 -2.24937,-1.37759c-0.71595,-0.35112 -1.34559,-0.87124 -1.82619,-1.52257c-1.3753,-1.38152 -2.20997,-3.0173 -0.76756,-4.39414c0.4896,-1.63969 1.80879,-2.98527 3.59,-3.42683c1.85059,-0.45877 3.71605,0.17825 4.91234,1.49881c1.48016,0.38301 2.84427,0.63645 3.3398,0.43395z"/></g></g></svg>